<?xml version="1.0" encoding="UTF-8" standalone="no"?>
<!-- Created with Inkscape (http://www.inkscape.org/) -->

<svg
   version="1.1"
   id="svg1"
   width="882.77277"
   height="945.84802"
   viewBox="0 0 882.77277 945.84802"
   xml:space="preserve"
   xmlns="http://www.w3.org/2000/svg"
   xmlns:svg="http://www.w3.org/2000/svg"><defs
     id="defs1" /><g
     id="g1"><path
       d="M 0,0"
       id="path163" /><path
       d="M 721.55469,852 C 719.49775,852 703,872.03339 703,874.53125 c 0,1.65465 1.64,3.5757 5.67578,6.64844 14.18121,10.79717 25.90911,32.51519 29.58984,54.79492 1.04722,6.33884 1.6143,7.6674 3.73438,8.73633 2.68347,1.35298 10.93002,1.4949 25.78711,0.44531 6.56707,-0.46394 9.58269,-1.09552 10.30078,-2.15625 0.96697,-1.42835 0.82488,-5.84259 -0.67578,-21 -0.81667,-8.24884 1.15085,-11.40039 7.11719,-11.40039 3.18369,0 4.37514,0.66189 7.47265,4.15234 4.00781,4.51625 7.44861,13.48358 8.57813,22.35742 0.3774,2.96496 1.13162,5.95313 1.67578,6.64063 0.65046,0.82179 3.85949,1.25 9.36719,1.25 7.04422,0 8.69526,-0.31831 10.37695,-2 2.43962,-2.43962 2.455,-3.06273 0.36133,-15.14258 -1.62308,-9.3647 -1.61514,-9.73848 0.2832,-13 1.63379,-2.807 2.61391,-3.40676 5.9707,-3.65625 4.70886,-0.34997 8.01682,2.32756 11.29688,9.14063 2.30946,4.79702 5.08115,14.90849 5.10351,18.61914 0.023,3.81991 1.36193,5.23806 4.59375,4.86914 L 852.5,943.5 l -0.0176,-9 c -0.0402,-20.30937 -11.46085,-39.13715 -28.74219,-47.38477 -13.72254,-6.54917 -34.40079,-7.85491 -61.87304,-3.90625 -20.60389,2.96147 -24.01758,2.93411 -27.39063,-0.21484 -3.86011,-3.60365 -5.86256,-8.10774 -9,-20.24414 -1.52849,-5.91249 -3.29288,-10.75 -3.92187,-10.75 z"
       style="fill:#e99c00;fill-opacity:1"
       id="path162" /><path
       d="m 125.34961,530.30469 c -2.62548,-1.00749 -6.35866,4.25476 -14.23047,20.06445 -7.83921,15.74423 -13.837917,32.31511 -17.310546,47.82031 -2.04527,9.13207 -2.300996,12.82511 -2.244141,32.31055 0.05982,20.50082 0.242425,22.66492 2.691406,31.75 6.153541,22.82804 18.069521,43.0965 35.681641,60.69531 12.67713,12.66757 24.43017,21.14937 40.35937,29.12305 16.81523,8.41719 16.3069,8.54734 23.59961,-6.02149 6.56858,-13.12217 11.07625,-20.54145 17.81446,-29.3125 4.82563,-6.28147 5.10309,-8.52637 1.28125,-10.36328 -1.3711,-0.659 -7.81798,-3.71424 -14.32813,-6.78906 C 183.37747,692.36198 171.00279,683.84048 158.61133,672 132.02668,646.59745 119,616.89541 119,581.68164 c 0,-15.25469 1.46871,-24.49131 6.08594,-38.2832 3.20572,-9.57568 3.25329,-11.94653 0.26367,-13.09375 z"
       style="fill:#37a318;fill-opacity:1"
       id="path161" /><path
       d="M 635.04102,421.33984 C 623.6831,420.93569 617,427.71656 617,440.11133 c 0,11.70463 7.55497,22.44873 23.08984,32.83984 17.0257,11.3883 28.38075,15.73084 59.0586,22.58203 38.49599,8.5972 56.31677,15.59573 73.85156,29.00391 14.24042,10.8891 21.10986,21.09668 30.99609,46.05273 7.72647,19.50409 10.68801,24.92106 16.55078,30.2793 7.23755,6.6147 13.46979,8.36389 21.67188,6.08594 2.04542,-0.56807 5.10372,-2.19609 6.79492,-3.61914 13.23419,-11.13584 10.63189,-46.03118 -5.5957,-75.04883 -19.27672,-34.47 -56.15368,-58.76935 -107.41797,-70.7793 -27.7829,-6.50884 -49.98389,-14.38229 -67.57031,-23.96484 -10.12746,-5.51828 -21.85384,-10.32949 -28.24024,-11.58594 -1.80751,-0.35561 -3.52587,-0.55945 -5.14843,-0.61719 z"
       style="fill:#ae002f;fill-opacity:1"
       id="path160" /><path
       d="m 542.29883,183.45117 c -30.31579,0.38291 -61.69661,10.00697 -87.14844,27.94336 -8.71648,6.14268 -21.3759,17.57762 -26.19336,23.66016 l -3.08984,3.90039 3.51758,7.27148 c 5.77573,11.94646 7.07195,22.19678 7.05273,55.77344 -0.017,29.61889 -0.88735,39.39069 -5.51367,61.875 -5.3049,25.78223 -15.5938,50.69623 -29.68946,71.89062 l -5.49804,8.26368 3.80078,5.73632 c 5.7065,8.6133 14.64044,17.4629 27.68555,27.42579 13.88508,10.60439 19.6104,16.69376 23.9082,25.42382 11.52151,23.40351 -3.95246,53.53721 -45.63086,88.85938 -26.50504,22.46286 -38.30023,31.10371 -85.8418,62.88086 -42.45167,28.37503 -55.06568,37.93363 -70.70898,53.58594 -29.06034,29.07705 -42.9994,58.11929 -44.66406,93.05859 -2.64869,55.59265 33.26685,107.67259 89.67187,130.03125 27.40329,10.86252 46.17768,13.28889 106.79297,13.80469 18.37558,0.15636 19.34557,0.0685 21.36328,-1.94922 2.00487,-2.00487 2.07829,-2.73973 1.41406,-14.25586 -0.66251,-11.48647 -0.58369,-12.28986 1.45899,-14.88672 1.62516,-2.06605 3.03143,-2.74414 5.68554,-2.74414 6.82606,0 11.10903,7.42197 13.44727,23.29883 0.66435,4.51095 1.63869,8.76367 2.16602,9.45117 1.23841,1.61454 24.92959,1.74046 27.90429,0.14844 1.9735,-1.05618 2.02678,-1.62787 1.33789,-14.08399 -0.69734,-12.60875 -0.65336,-13.05224 1.55078,-15.39843 2.91159,-3.09925 8.0906,-3.2473 11.02344,-0.31446 3.0863,3.0863 6.60066,11.48276 7.91016,18.89844 2.02946,11.49276 2.03332,11.5 6.51172,11.5 H 506.5 l -0.29688,-9 C 505.23213,906.0576 490.32038,885.20171 465.5,878.57227 c -19.46617,-5.19937 -48.78832,-1.85395 -77.33398,8.82421 -19.20545,7.18425 -27.33463,7.82192 -32.95899,2.58204 -2.56901,-2.3934 -2.78653,-4.95815 -0.75195,-8.89258 1.62282,-3.1382 4.27008,-4.58302 16.58984,-9.05274 4.65062,-1.68728 13.97411,-5.82014 20.7207,-9.18359 11.0927,-5.53016 13.01676,-6.90623 20.09766,-14.38672 18.09621,-19.11739 26.14902,-36.6698 26.125,-56.94336 C 437.96678,773.33009 432.53595,760.34898 419.57227,747.5 403.53981,731.60942 383.85291,724.03524 358.5,724.00195 c -15.44394,-0.0203 -20.83398,-2.39333 -20.83398,-9.17187 0,-4.31017 4.62644,-8.2974 11.28125,-9.72461 7.4548,-1.59877 26.51089,-1.35542 36.08593,0.46094 37.27451,7.07085 68.05816,33.01356 75.99414,64.04296 2.68237,10.48797 2.68948,27.87922 0.0156,38.89063 -2.83902,11.69149 -6.07564,19.17411 -14.09375,32.58398 -4.04029,6.75719 -6.90111,12.59895 -6.58008,13.43555 0.4339,1.1307 2.40552,1.48182 8.34961,1.48633 11.41981,0.009 26.15703,2.51738 35.00977,5.96094 4.27454,1.66272 8.40461,3.02676 9.17773,3.02929 1.17056,0.004 1.30279,-2.37956 0.79297,-14.24609 -0.33672,-7.83749 -1.16081,-32.08169 -1.83008,-53.875 -1.32016,-42.98738 -1.24896,-43.85773 3.90039,-47.9082 3.93135,-3.09241 10.67183,-2.67974 14.22266,0.87109 3.57495,3.57496 3.77581,5.21647 4.44531,36.16211 0.54535,25.2071 2.81401,71.29051 4.55273,92.5 0.78878,9.62174 1.69698,13.98189 4.58204,22 4.96186,13.78995 7.29651,23.50505 8.05468,33.5 0.35462,4.675 1.08845,9.0625 1.63086,9.75 0.7641,0.96849 11.64075,1.25 48.29297,1.25 43.24057,0 47.45357,-0.14694 49.01172,-1.70508 1.49218,-1.49219 1.60125,-2.89433 0.88477,-11.25 -0.45018,-5.24994 -0.82612,-11.20895 -0.83594,-13.24219 -0.0314,-6.51146 5.14294,-9.78611 11.34179,-7.17968 4.35152,1.82967 8.70157,11.36715 10.24024,22.45117 0.64332,4.6342 1.59388,8.98828 2.11133,9.67578 1.29113,1.71545 25.7861,1.76077 27.49609,0.0508 1.49879,-1.49879 1.5237,-6.86872 0.0801,-17.24805 -1.28391,-9.23089 -0.40377,-12.90115 3.52539,-14.6914 7.59337,-3.45977 15.00375,5.6118 18.49219,22.63867 1.98634,9.69524 2.44984,10.5 6.03906,10.5 4.24111,0 4.95881,-1.6087 3.94922,-8.8457 -2.52228,-18.08055 -14.90331,-35.60445 -30.81836,-43.61914 -10.80424,-5.44093 -17.49249,-6.77516 -37.56836,-7.48829 -20.17455,-0.71662 -23.08438,-1.54464 -25.8418,-7.35546 -2.14118,-4.51224 -5.65483,-58.43133 -5.65625,-86.79297 -9.9e-4,-19.79287 0.088,-20.73655 2.2793,-23.98828 4.35802,-6.46687 13.09374,-6.47201 17.43555,-0.0117 2.07874,3.09303 2.28354,4.5285 2.27734,16 -0.009,15.89592 4.84302,78.17823 6.2207,79.85156 0.73868,0.89719 5.20138,1.25 15.8086,1.25 h 14.77929 l 6.00196,-4.51172 c 14.06608,-10.57367 31.32528,-33.50158 41.02929,-54.50586 15.26711,-33.04559 16.14731,-67.07821 2.61719,-101.18359 -6.79172,-17.11993 -12.05291,-25.84078 -41.43359,-68.69336 -11.24896,-16.40693 -18.30059,-29.88103 -20.67383,-39.49805 -2.77357,-11.23928 0.66617,-24.55093 8.32422,-32.20898 8.90761,-8.9076 17.95969,-9.80081 40.83203,-4.02735 20.79608,5.24938 26.04734,5.92878 41.86328,5.41211 14.46227,-0.4725 21.63673,-2.13357 21.63673,-5.0098 0,-1.99487 -2.66811,-5.62792 -8.89453,-12.10938 -13.72302,-14.28507 -28.89551,-20.80025 -66.60547,-28.60351 -25.38798,-5.2535 -39.50869,-9.64441 -53.44141,-16.61914 -24.48803,-12.25873 -40.03991,-28.1105 -46.70898,-47.60743 -2.16543,-6.33059 -2.46076,-8.70412 -2.16211,-17.3457 0.29803,-8.62364 0.75211,-10.84309 3.27148,-16 3.75801,-7.69221 11.91294,-15.84297 19.27344,-19.26172 5.26231,-2.44419 6.82017,-2.67637 17.76758,-2.64844 15.0023,0.0383 19.73729,1.54449 48.5,15.41797 11.27499,5.43841 24.55,11.2322 29.5,12.875 46.62106,15.47264 95.88082,7.15242 126.33594,-21.33593 11.47526,-10.73419 18.87464,-21.87994 24.1875,-36.4375 4.74062,-12.98962 6.11786,-31.76977 3.70396,-36.28019 -0.94456,-1.7649 -2.25722,-0.41486 -14.46289,-1.93359 -10.77434,-1.34063 -15.49803,-3.60375 -19.83593,-5.69531 -10.15309,-4.89541 -19.97784,-12.75074 -21.38477,-23.24024 -0.40978,-3.05507 -0.99502,-4.06445 -2.35547,-4.06445 -0.99554,0 -18.71021,1.36015 -40.87975,4.10245 -70.40149,8.70842 -82.94343,9.03338 -95.875,2.48047 -11.13895,-5.64454 -14.63103,-11.36646 -18.28711,-29.9668 -8.54446,-43.47014 -26.9544,-68.61874 -60.43945,-82.55859 -15.91177,-6.62409 -33.71873,-9.71999 -51.9082,-9.49024 z"
       id="path159"
       style="fill:#e99c00;fill-opacity:1" /><path
       d="m 424.16196,92.254819 c 11.89148,0.325009 20.55784,1.902829 31.25,5.359375 21.28032,6.879466 37.08423,19.457286 46.00976,36.613286 5.37508,10.33157 7.79773,12.83984 12.39454,12.83984 4.65641,0 7.17729,-2.84437 8.76757,-9.89453 1.26078,-5.58939 1.76528,-19.25888 0.81641,-22.10547 -0.41025,-1.23076 0.87587,-1.55268 7.16211,-1.79102 26.40292,-1.00102 46.03504,21.88021 45.72461,53.29102 -0.0435,4.4 -0.59795,10.35684 -1.23242,13.23828 0,0 -0.0674,7.4694 -4.03466,7.89903 -12.3579,1.33829 -73.80818,-22.04176 -150.10206,54.98769 l -11.01758,11.12305 -19.5,0.5664 c -32.18883,0.93486 -50.20002,5.47622 -67.5,17.01758 -3.3,2.20153 -9.23799,7.2683 -13.19531,11.25977 l -7.19532,7.25586 3.04688,-8.67383 c 4.00257,-11.39618 11.62018,-26.07267 17.75195,-34.20508 11.32802,-15.02402 26.9462,-27.55165 48.5918,-38.97266 27.9128,-14.72781 33.59399,-20.82807 29.12305,-31.27734 -2.9278,-6.84271 -11.89451,-12.36628 -25.77735,-15.87695 -6.74475,-1.70556 -10.32512,-1.99423 -20.26953,-1.63086 -10.85713,0.39672 -13.28814,0.85273 -24.07617,4.51367 -6.59999,2.23972 -15.07613,5.50375 -18.83594,7.25391 -3.75979,1.75014 -7.05276,2.96677 -7.3164,2.70312 -0.26365,-0.26365 1.0814,-4.23686 2.98828,-8.83008 12.39953,-29.86743 33.65516,-52.86382 58.57812,-63.375 14.68567,-6.19363 26.72643,-8.677401 44.68555,-9.218749 4.875,-0.146948 9.19828,-0.178648 13.16211,-0.07031 z"
       id="path165"
       style="fill:#ae002f;fill-opacity:1" /><path
       d="m 361.51857,177.02975 c -114.36891,65.65581 -60.74991,116.18429 -127.29982,161.76517 -4.96361,3.39964 -19.53009,11.62717 -32.37109,18.2832 -26.63917,13.80821 -34.97963,19.05385 -42.92188,26.9961 -13.93027,13.93027 -19.97528,28.4345 -19.98828,47.95703 -0.0127,19.03869 6.0395,32.99575 20.58398,47.46875 23.54745,23.4317 59.33434,34.64211 105.97071,33.19531 24.49408,-0.75987 38.32541,-3.95839 59.03125,-13.65039 17.73506,-8.30144 61.57216,-68.65482 73.54832,-78.46048 41.91955,-27.51751 20.65495,-211.94683 30.33633,-226.22928 -29.82348,-21.44585 -23.38175,-42.30194 -66.88952,-17.32541 z"
       id="path156"
       style="fill:#ae002f;fill-opacity:1"
       transform="translate(11.818442,29.205326)" /><path
       id="path263"
       style="fill:#37a318;fill-opacity:1;stroke-width:0.599978"
       d="m 817.09235,293.76715 c -0.17862,-1.9134 1.80457,-3.59785 3.33586,-4.69578 15.84021,-11.35754 41.75484,-27.77675 55.38569,-15.87901 5.52979,4.82669 7.41035,9.95686 6.8701,18.74204 -0.57867,9.41145 -0.68674,30.30498 -12.66601,31.88498 -22.63322,2.9852 -51.04249,-9.87964 -52.92564,-30.05223 z" /></g></svg>
