<?xml version="1.0" encoding="UTF-8" standalone="no"?>
<!-- Created with Inkscape (http://www.inkscape.org/) -->

<svg
   version="1.1"
   id="svg1"
   width="832.77283"
   height="947.30847"
   viewBox="0 0 832.77283 947.30847"
   xmlns="http://www.w3.org/2000/svg"
   xmlns:svg="http://www.w3.org/2000/svg">
  <defs
     id="defs1" />
  <g
     id="g1"
     transform="translate(-82.081306,-33.514301)">
    <path
       style="fill:#00ff00"
       d="M 474.5,979.89119 C 417.46427,977.47016 362.24762,968.75456 319,955.34649 241.99739,931.47335 175.01034,880.80963 132.24573,814.1003 95.43627,756.68051 77.599311,682.14642 83.042958,608.5 86.4212,562.79618 98.23513,515.66638 115.82222,477.73231 c 15.50919,-33.45216 33.58535,-49.2908 54.07091,-47.37783 13.62321,1.27216 22.16555,8.14731 38.61346,31.07734 28.32602,39.48932 62.4608,62.37175 105.98651,71.04864 17.23671,3.43615 30.78564,4.52017 56.43058,4.51489 34.35575,-0.007 95.14007,-4.00563 100.68776,-6.62349 3.6021,-1.69977 5.38856,-5.00464 5.38856,-9.96857 0,-7.51737 -4.10804,-12.70921 -24.23245,-30.62552 -25.65787,-22.84264 -39.89718,-40.6741 -51.3345,-64.28465 -2.97274,-6.13676 -6.21676,-11.89239 -7.20892,-12.79028 -0.99216,-0.89789 -5.33934,-3.06002 -9.66041,-4.80473 -36.03923,-14.55146 -60.81469,-42.81377 -71.05396,-81.05395 -5.47715,-20.45532 -3.72205,-44.54601 4.61915,-63.40267 1.12101,-2.53424 1.8093,-4.83661 1.52953,-5.11639 -0.66326,-0.66325 -11.77424,5.82602 -18.15844,10.60528 -6.7667,5.06559 -8.83177,6.06962 -12.48392,6.06962 -4.85385,0 -8.60406,-2.51744 -10.94068,-7.34424 -7.17184,-14.81505 -6.3855,-39.73404 2.05604,-65.15576 11.90965,-35.86595 35.42307,-64.56322 65.83078,-80.34404 20.15884,-10.46193 34.074,-14.14909 56.03778,-14.84859 19.41543,-0.61834 29.0976,0.71515 45.52342,6.26977 5.84983,1.9782 10.88852,3.34426 11.19708,3.03569 0.88866,-0.88866 -11.29826,-12.16538 -17.94171,-16.60171 -3.3213,-2.217879 -9.03637,-4.943014 -12.70017,-6.055859 C 418.84305,91.150044 415.2196,88.698599 412.96382,83.72934 408.89812,74.773 411.41395,67.500685 421.94437,57.770012 432.94082,47.6087 451.3211,39.161193 470.72512,35.350573 483.11672,32.917071 512.97572,32.898781 526,35.316714 590.89599,47.364533 638.26284,98.04335 642.67098,160.14552 l 0.64686,9.11311 7.59108,3.40562 c 37.09396,16.64164 60.06957,37.1904 83.28298,74.48608 3.46732,5.57075 7.33491,10.80397 8.59465,11.62938 1.25974,0.82541 4.86061,2.10562 8.00194,2.8449 20.66408,4.86309 49.54932,-3.21663 81.71151,-22.85618 29.81249,-18.20472 47.62728,-21.81784 60.64333,-12.29941 3.19907,2.33943 5.52151,5.19053 7.46669,9.16632 2.46661,5.04158 2.81062,6.85067 2.72254,14.3177 -0.34072,28.88798 -26.89929,64.2353 -70.83256,94.27246 -6.05,4.13638 -15.1625,9.85646 -20.25,12.7113 -5.0875,2.85483 -9.25,5.51649 -9.25,5.91481 0,1.86965 15.20174,10.34311 32.93677,18.35897 30.36396,13.72387 31.17139,14.11486 35.31493,17.10112 2.17281,1.56595 4.74382,4.66737 5.80285,7 6.38911,14.07266 -3.37549,28.91187 -23.13146,35.15278 -14.44779,4.56406 -25.42441,5.13796 -58.33107,3.0498 -24.56599,-1.55889 -30.70693,-1.66139 -38.04373,-0.63502 -12.02952,1.68284 -18.5288,4.33629 -24.91315,10.17123 -12.79919,11.69773 -13.58881,28.50091 -2.06004,43.83757 8.10783,10.7858 10.67647,12.70252 63.4249,47.3278 72.30707,47.46403 106.72081,94.16857 118.10363,160.28414 2.94282,17.09297 3.65765,47.84803 1.49322,64.24504 -12.58802,95.36281 -85.45436,168.98017 -194.09685,196.09738 -32.44345,8.0979 -69.95828,12.98254 -116.18515,15.12795 -25.25316,1.17202 -100.42728,1.12581 -128.81485,-0.0792 z"
       id="path1" />
    <path
       style="fill:#ffffff;fill-opacity:1"
       d="m 549.92506,853.49055 c 24.73641,-3.38583 43.13985,-8.74951 62.0212,-18.07605 33.27068,-16.43423 54.73225,-41.24114 62.64904,-72.4145 2.85084,-11.22554 2.60563,-39.2899 -0.44124,-50.5 -6.42645,-23.64435 -23.27932,-46.73947 -44.06713,-60.38948 C 595.63687,629.48941 548.82112,626.13824 487.5,641.90387 c -8.25,2.12107 -27.375,7.02925 -42.5,10.90705 -52.47451,13.45363 -82.74346,16.46271 -116.42837,11.57433 -17.97104,-2.60797 -40.2555,-9.19025 -57.09625,-16.86482 C 267.2266,645.58419 263.58149,644 263.37516,644 c -1.03532,0 -0.18131,18.79077 1.13934,25.06893 3.21602,15.28843 9.33933,26.51689 20.9855,38.48161 12.51827,12.86067 28.2625,21.95451 49.21811,28.42829 11.48215,3.54716 15.2849,6.62056 15.27815,12.3479 -0.005,4.09753 -3.29053,9.45446 -6.56182,10.6982 -7.06241,2.68512 -20.28545,-0.35284 -38.83278,-8.92173 -4.85683,-2.24386 -9.22908,-3.83347 -9.71613,-3.53246 -2.55929,1.58174 0.78804,14.39561 6.12506,23.44721 10.25546,17.39331 27.44505,32.50297 51.0041,44.83263 38.42491,20.10973 88.14128,35.00414 130.51334,39.10019 6.03458,0.58336 12.54697,1.24364 14.47197,1.4673 7.23448,0.84054 41.93506,-0.42324 52.92506,-1.92752 z"
       id="path19" />
    <path
       d="M 474.5,979.89119 C 417.46427,977.47016 362.24762,968.75456 319,955.34649 241.99739,931.47335 175.01034,880.80963 132.24573,814.1003 95.43627,756.68051 77.599311,682.14642 83.042958,608.5 86.4212,562.79618 98.23513,515.66638 115.82222,477.73231 c 15.50919,-33.45216 33.58535,-49.2908 54.07091,-47.37783 13.62321,1.27216 22.16555,8.14731 38.61346,31.07734 28.32602,39.48932 62.4608,62.37175 105.98651,71.04864 17.23671,3.43615 30.78564,4.52017 56.43058,4.51489 34.35575,-0.007 95.14007,-4.00563 100.68776,-6.62349 3.6021,-1.69977 5.38856,-5.00464 5.38856,-9.96857 0,-7.51737 -4.10804,-12.70921 -24.23245,-30.62552 -25.65787,-22.84264 -39.89718,-40.6741 -51.3345,-64.28465 -2.97274,-6.13676 -6.21676,-11.89239 -7.20892,-12.79028 -0.99216,-0.89789 -5.33934,-3.06002 -9.66041,-4.80473 -36.03923,-14.55146 -60.81469,-42.81377 -71.05396,-81.05395 -5.47715,-20.45532 -3.72205,-44.54601 4.61915,-63.40267 1.12101,-2.53424 1.8093,-4.83661 1.52953,-5.11639 -0.66326,-0.66325 -11.77424,5.82602 -18.15844,10.60528 -6.7667,5.06559 -8.83177,6.06962 -12.48392,6.06962 -4.85385,0 -8.60406,-2.51744 -10.94068,-7.34424 -7.17184,-14.81505 -6.3855,-39.73404 2.05604,-65.15576 11.90965,-35.86595 35.42307,-64.56322 65.83078,-80.34404 20.15884,-10.46193 34.074,-14.14909 56.03778,-14.84859 19.41543,-0.61834 29.0976,0.71515 45.52342,6.26977 5.84983,1.9782 10.88852,3.34426 11.19708,3.03569 0.88866,-0.88866 -11.29826,-12.16538 -17.94171,-16.60171 -3.3213,-2.217879 -9.03637,-4.943014 -12.70017,-6.055859 C 418.84305,91.150044 415.2196,88.698599 412.96382,83.72934 408.89812,74.773 411.41395,67.500685 421.94437,57.770012 432.94082,47.6087 451.3211,39.161193 470.72512,35.350573 483.11672,32.917071 512.97572,32.898781 526,35.316714 590.89599,47.364533 638.26284,98.04335 642.67098,160.14552 l 0.64686,9.11311 7.59108,3.40562 c 37.09396,16.64164 60.06957,37.1904 83.28298,74.48608 3.46732,5.57075 7.33491,10.80397 8.59465,11.62938 1.25974,0.82541 4.86061,2.10562 8.00194,2.8449 20.66408,4.86309 49.54932,-3.21663 81.71151,-22.85618 29.81249,-18.20472 47.62728,-21.81784 60.64333,-12.29941 3.19907,2.33943 5.52151,5.19053 7.46669,9.16632 2.46661,5.04158 2.81062,6.85067 2.72254,14.3177 -0.34072,28.88798 -26.89929,64.2353 -70.83256,94.27246 -6.05,4.13638 -15.1625,9.85646 -20.25,12.7113 -5.0875,2.85483 -9.25,5.51649 -9.25,5.91481 0,1.86965 15.20174,10.34311 32.93677,18.35897 30.36396,13.72387 31.17139,14.11486 35.31493,17.10112 2.17281,1.56595 4.74382,4.66737 5.80285,7 6.38911,14.07266 -3.37549,28.91187 -23.13146,35.15278 -14.44779,4.56406 -25.42441,5.13796 -58.33107,3.0498 -24.56599,-1.55889 -30.70693,-1.66139 -38.04373,-0.63502 -12.02952,1.68284 -18.5288,4.33629 -24.91315,10.17123 -12.79919,11.69773 -13.58881,28.50091 -2.06004,43.83757 8.10783,10.7858 10.67647,12.70252 63.4249,47.3278 72.30707,47.46403 106.72081,94.16857 118.10363,160.28414 2.94282,17.09297 3.65765,47.84803 1.49322,64.24504 -12.58802,95.36281 -85.45436,168.98017 -194.09685,196.09738 -32.44345,8.0979 -69.95828,12.98254 -116.18515,15.12795 -25.25316,1.17202 -100.42728,1.12581 -128.81485,-0.0792 z"
       id="path16"
       style="fill:#ffffff;fill-opacity:1;stroke:none" />
    <path
       style="fill:#37a318;fill-opacity:1"
       d="m 628,954.08429 c 20.3841,-1.72561 44.86978,-4.81678 60.5,-7.63776 C 776.59836,930.54632 840.71957,887.23935 872.01785,822.5 884.44774,796.78922 890,771.77924 890,741.5 c 0,-31.71225 -5.6519,-56.00961 -19.53956,-84 -10.46552,-21.09311 -17.73227,-30.83259 -38.43181,-51.50934 -19.19164,-19.17053 -31.74215,-29.36275 -54.55034,-44.30014 -8.23806,-5.39521 -22.61253,-14.8009 -31.94326,-20.90153 -32.29089,-21.11245 -45.94309,-39.10427 -47.2956,-62.32943 -0.77417,-13.29383 2.60727,-24.27401 10.82986,-35.16665 2.16189,-2.8639 3.93071,-5.8647 3.93071,-6.66844 0,-0.80374 -1.6875,-2.50263 -3.75,-3.7753 -7.46111,-4.6039 -23.23139,-18.02199 -31.25284,-26.59137 -16.73633,-17.87955 -24.3297,-32.81715 -22.06063,-43.39746 1.50512,-7.01814 1.89616,-7.58771 13.86776,-20.19882 20.50071,-21.59584 49.19121,-63.55406 49.19492,-71.94476 0.003,-7.17519 -22.05551,-37.60012 -36.28231,-50.04319 -26.51522,-23.19079 -53.74153,-34.1096 -88.2169,-35.37842 -69.04682,-2.54116 -132.63546,31.65538 -165.21621,88.84956 -14.14638,24.83339 -22.29458,58.03965 -20.90043,85.17524 1.07921,21.00557 5.34821,37.18798 14.79382,56.07865 10.80767,21.6147 21.81882,34.9298 46.82282,56.61993 22.55177,19.56292 28.39055,26.70015 31.448,38.44157 3.24206,12.45037 0.65753,24.04349 -7.20556,32.32117 -9.33735,9.82967 -15.68721,11.65751 -49.24244,14.17466 -61.23892,4.59386 -98.51049,5.08345 -122,1.60256 -54.35186,-8.05434 -101.40354,-36.68096 -133.63065,-81.30196 -14.48586,-20.05685 -16.27791,-21.61664 -24.12919,-21.00207 -6.91792,0.54151 -11.04777,3.85318 -18.45607,14.7997 -12.63206,18.66515 -25.88275,55.53782 -33.22437,92.45338 -7.83337,39.3882 -8.62834,89.93258 -2.01564,128.15472 5.48615,31.7106 17.91943,67.47748 32.61626,93.82734 14.07863,25.2415 28.72699,44.48011 50.29724,66.05848 65.90879,65.93362 145.63818,96.01534 274.04242,103.39562 20.94971,1.20412 142.88511,0.54711 159.5,-0.85941 z"
       id="path17" />
    <path
       style="fill:#ae002f;fill-opacity:1"
       d="m 384.62128,357.25 c -0.0397,-23.72395 0.71959,-30.59388 5.55036,-50.21714 10.80089,-43.87467 45.18804,-89.10268 87.77361,-115.44504 22.03005,-13.62723 45.68754,-22.705 71.05475,-27.26487 10.78352,-1.93838 46.10725,-2.46906 61.40865,-0.92256 l 8.90865,0.90039 -0.62832,-6.72851 C 616.00345,128.81357 595.45582,95.286718 569.86547,77.908644 562.67128,73.023161 547.36388,65.689023 538.62124,62.938794 514.99634,55.506953 480.93387,55.699689 458.31401,63.393198 451.62246,65.669142 443,70.486361 443,71.948872 c 0,0.375705 2.40412,1.679552 5.34249,2.897438 8.17214,3.387163 19.84684,11.486266 25.546,17.722062 18.35381,20.081988 22.8688,48.098978 9.21363,57.173558 -5.22942,3.47522 -9.50662,2.97121 -17.62798,-2.07721 -10.41419,-6.47369 -21.83522,-11.29422 -34.04953,-14.37145 -9.63395,-2.42714 -12.69675,-2.74219 -25.92461,-2.66675 -13.42679,0.0766 -16.25453,0.41368 -26.96158,3.21425 -13.37524,3.49847 -26.76677,9.68997 -36.03842,16.66216 -9.12467,6.86166 -20.6663,18.65109 -25.90913,26.4654 -6.70353,9.99145 -14.07622,25.97161 -17.08511,37.03167 -2.58269,9.49343 -4.52224,27 -2.99133,27 0.44576,0 2.87899,-1.32736 5.40716,-2.94969 10.36653,-6.65218 20.97723,-10.02334 31.57841,-10.03286 9.5226,-0.009 14.25351,1.50076 18.72745,5.97471 4.92084,4.92084 4.9954,8.32366 0.31068,14.1801 -11.02626,13.78409 -16.99367,29.30989 -18.19063,47.32774 -1.0718,16.13373 3.52271,34.66066 12.39954,50 6.28661,10.86341 20.16006,24.77662 30.25296,30.33967 4.125,2.27364 7.53586,4.13984 7.57969,4.14711 0.0438,0.007 0.0625,-10.22428 0.0416,-22.73678 z"
       id="path21" />
    <path
       d="M 489.5,879.3914 C 440.13693,875.51107 386.26553,860.04132 343,837.32235 c -19.11638,-10.03812 -31.92338,-19.21943 -45.06355,-32.30599 -15.92442,-15.85944 -23.899,-28.59507 -27.83376,-44.45126 -1.6579,-6.68098 -1.50302,-18.98217 0.31458,-24.98581 0.81936,-2.7064 1.19594,-5.4064 0.83684,-6 -0.3591,-0.59361 -3.5177,-4.3734 -7.01912,-8.39953 -15.12355,-17.38993 -22.06586,-32.65214 -25.32704,-55.67976 -2.13002,-15.04037 0.49728,-38.70411 5.14586,-46.34809 2.06671,-3.39843 7.12298,-6.15191 11.29687,-6.15191 1.32821,0 8.99905,3.40413 17.04633,7.56474 32.53902,16.82335 65.02595,23.83137 99.18532,21.39606 23.414,-1.66924 41.20199,-5.03623 77.17587,-14.60819 62.78689,-16.7064 83.90065,-20.1821 115.7418,-19.05315 18.232,0.64643 29.66368,2.41892 44,6.82221 48.4404,14.8781 84.14605,54.74432 92.05925,102.78635 2.1959,13.33156 1.51612,37.35292 -1.41755,50.09198 -4.88765,21.224 -14.61148,39.01386 -30.423,55.65928 -27.31039,28.75075 -66.83553,47.29972 -114.7187,53.837 -11.04479,1.50789 -53.54173,2.75653 -64.5,1.89512 z"
       id="path22"
       style="fill:#ffffff;stroke:#ffffff;stroke-width:45;stroke-dasharray:none;stroke-opacity:1" />
    <path
       style="fill:#37a318;fill-opacity:0.986762;fill-rule:nonzero;stroke:none;stroke-opacity:1"
       d="M 489.5,879.3914 C 440.13693,875.51107 386.26553,860.04132 343,837.32235 c -19.11638,-10.03812 -31.92338,-19.21943 -45.06355,-32.30599 -15.92442,-15.85944 -23.899,-28.59507 -27.83376,-44.45126 -1.6579,-6.68098 -1.50302,-18.98217 0.31458,-24.98581 0.81936,-2.7064 1.19594,-5.4064 0.83684,-6 -0.3591,-0.59361 -3.5177,-4.3734 -7.01912,-8.39953 -15.12355,-17.38993 -22.06586,-32.65214 -25.32704,-55.67976 -2.13002,-15.04037 0.49728,-38.70411 5.14586,-46.34809 2.06671,-3.39843 7.12298,-6.15191 11.29687,-6.15191 1.32821,0 8.99905,3.40413 17.04633,7.56474 32.53902,16.82335 65.02595,23.83137 99.18532,21.39606 23.414,-1.66924 41.20199,-5.03623 77.17587,-14.60819 62.78689,-16.7064 83.90065,-20.1821 115.7418,-19.05315 18.232,0.64643 29.66368,2.41892 44,6.82221 48.4404,14.8781 84.14605,54.74432 92.05925,102.78635 2.1959,13.33156 1.51612,37.35292 -1.41755,50.09198 -4.88765,21.224 -14.61148,39.01386 -30.423,55.65928 -27.31039,28.75075 -66.83553,47.29972 -114.7187,53.837 -11.04479,1.50789 -53.54173,2.75653 -64.5,1.89512 z"
       id="path18" />
    <path
       style="fill:#e99c00;fill-opacity:1"
       d="m 844.69994,417.84717 c 4.38059,-1.12547 7.9205,-4.03426 6.90641,-5.67509 -0.58182,-0.94141 -9.49562,-5.45351 -25.10635,-12.70866 -4.4,-2.04492 -15.06736,-7.72529 -23.70525,-12.62305 -23.45358,-13.29841 -22.84879,-13.14563 -40.55552,-10.24486 -24.75811,4.05595 -46.15892,-2.43817 -39.83592,-12.08829 1.69636,-2.58897 3.77893,-3.27845 17.80236,-5.89384 17.89298,-3.33708 51.59174,-16.67065 68.03541,-26.91954 29.15616,-18.17223 54.66029,-43.84761 65.07476,-65.51168 3.26202,-6.78561 4.01569,-9.45666 4.09138,-14.5 L 877.5,245.5 l -3.72296,-0.30875 c -4.74374,-0.39341 -9.00188,1.5105 -30.06415,13.44239 -31.93302,18.09023 -47.7974,24.42128 -65.72886,26.23067 -10.42324,1.05177 -22.42187,0.49899 -30.79608,-1.41879 C 743.71632,282.65048 740.71811,282 740.52527,282 c -0.19284,0 -3.15416,5.0625 -6.58071,11.25 -12.03933,21.74003 -24.52426,39.31546 -40.79637,57.43035 -5.0296,5.5992 -9.56162,11.27685 -10.07115,12.61701 -2.15032,5.65579 2.71507,15.06221 14.06845,27.19901 9.04817,9.67253 21.12021,19.00308 30.80533,23.80964 8.42236,4.17987 8.4813,4.19238 17.5,3.71446 12.57963,-0.6666 41.6299,-0.37511 63.04918,0.63265 20.47075,0.96313 30.1534,0.74756 36.19994,-0.80595 z"
       id="path20" />
  </g>
</svg>
